<svg xmlns="http://www.w3.org/2000/svg" viewBox="0 0 212.32 180.82"><title>Asset 2</title><g id="Layer_2" data-name="Layer 2"><g id="Layer_1-2" data-name="Layer 1"><path d="M167.12,70.23c-.18-3.66-3.91-5.61-3.85-10.05l48.67,6.31.38,1.29L108.64,130.14c-6.27-6.37-11-13.39-16.27-19.94-5.46-6.78-5.26-6.78-13.26-4C62.82,111.87,46.47,117.36,30.17,123c-8.27,2.87-16.55,5.68-25,8-1.4.39-2.73,1.08-5.18.53L92,76.12c5,4.51,8.34,9.9,12.42,14.65a105.59,105.59,0,0,1,6.81,8.59c1.82,2.63,3.5,2.78,6.18,1.14,12.33-7.57,24.77-15,37.17-22.41C158.82,75.54,163.22,73.23,167.12,70.23Z" fill="#fff"/><path d="M123.45,88.14V0h30.23c1.18,1.34.64,3.09.65,4.69,0,20.66,0,41.33.09,62,0,3-.93,4.94-3.64,6.39-8.52,4.53-16.57,9.86-24.71,15C125.51,88.46,124.9,88.75,123.45,88.14Z" fill="#fff"/><path d="M86.58,18.59H117.1V93.24l-1.13.67c-8.15-8-13.92-18.16-22.11-26.07-2.67.21-4.32,2.72-7.28,2.68Z" fill="#fff"/><path d="M49.36,95.39V83.81q0-21,0-41.9c0-4.93.18-5.12,5-5.14,7.49,0,15,.09,22.45-.07,3.22-.06,4.46,1.1,4.42,4.35-.13,10.14-.08,20.29,0,30.43,0,1.93-.2,3.72-1.91,4.86C69.79,82.66,60.35,89.06,49.36,95.39Z" fill="#fff"/><text transform="translate(4.96 168.53)" font-size="45.35" fill="#fff" font-family="Roboto-Medium, Roboto" font-weight="500">Trademint</text></g></g></svg>